<svg xmlns="http://www.w3.org/2000/svg" width="1254" height="1254" viewBox="0 0 1254 1254" fill="none">
  <path d="M 285 235 L 264 258 L 248 282 L 241 296 L 233 317 L 229 332 L 226 351 L 226 439 L 229 459 L 237 486 L 249 512 L 260 529 L 270 541 L 313 584 L 313 586 L 275 624 L 263 639 L 250 659 L 241 677 L 232 702 L 228 718 L 226 732 L 225 746 L 225 823 L 227 843 L 230 859 L 236 878 L 246 900 L 255 915 L 273 938 L 295 959 L 313 972 L 331 982 L 360 993 L 378 997 L 396 999 L 472 999 L 483 998 L 508 993 L 528 986 L 550 975 L 573 959 L 627 906 L 662 942 L 676 955 L 702 974 L 728 987 L 746 993 L 771 998 L 783 999 L 856 999 L 885 995 L 911 987 L 930 978 L 946 968 L 964 954 L 982 936 L 991 925 L 1000 912 L 1008 898 L 1020 869 L 1023 858 L 1027 835 L 1027 733 L 1024 714 L 1017 690 L 1002 658 L 989 638 L 977 623 L 949 597 L 939 586 L 982 543 L 997 523 L 1004 511 L 1015 487 L 1023 462 L 1026 447 L 1027 438 L 1027 349 L 1025 335 L 1021 319 L 1012 295 L 1002 276 L 983 250 L 956 224 L 936 210 L 912 198 L 898 193 L 883 189 L 865 186 L 774 186 L 755 189 L 731 196 L 705 208 L 684 222 L 673 231 L 628 276 L 626 276 L 574 225 L 552 209 L 535 200 L 520 194 L 502 189 L 483 186 L 389 186 L 370 189 L 350 195 L 320 209 L 303 220 Z
M 734 414 L 962 635 L 974 650 L 990 676 L 998 694 L 1003 709 L 1006 721 L 1009 745 L 1009 822 L 1007 842 L 1003 859 L 997 876 L 990 891 L 978 910 L 970 920 L 948 942 L 922 960 L 906 968 L 886 975 L 872 978 L 853 980 L 785 980 L 773 979 L 749 974 L 726 965 L 702 951 L 683 936 L 640 893 L 640 891 L 702 829 L 742 869 L 754 878 L 766 884 L 779 888 L 792 890 L 848 890 L 862 888 L 872 885 L 884 879 L 894 872 L 903 863 L 912 850 L 915 844 L 920 827 L 921 820 L 921 756 L 919 744 L 915 731 L 910 721 L 904 712 L 895 702 L 872 681 L 797 608 L 736 547 L 679 492 L 668 480 L 710 437 Z
M 988 291 L 998 312 L 1005 334 L 1008 351 L 1009 361 L 1009 424 L 1006 450 L 997 481 L 992 493 L 982 511 L 968 530 L 926 573 L 924 573 L 867 518 L 866 515 L 905 476 L 911 467 L 916 457 L 919 448 L 922 434 L 922 363 L 919 349 L 913 335 L 907 326 L 899 317 L 889 309 L 877 302 L 869 299 L 856 296 L 786 296 L 768 301 L 751 310 L 716 344 L 637 426 L 595 468 L 518 549 L 516 550 L 448 484 L 448 482 L 484 447 L 484 446 L 565 366 L 567 363 L 575 356 L 681 249 L 693 239 L 706 230 L 718 223 L 738 214 L 759 208 L 779 205 L 858 205 L 874 207 L 890 211 L 915 221 L 929 229 L 948 243 L 968 263 L 979 277 Z
M 251 862 L 246 841 L 244 823 L 244 744 L 246 727 L 252 702 L 258 686 L 267 668 L 278 651 L 289 637 L 328 599 L 389 661 L 347 704 L 342 711 L 337 721 L 333 733 L 331 743 L 331 822 L 334 836 L 340 850 L 350 864 L 357 871 L 368 879 L 378 884 L 390 888 L 403 890 L 459 890 L 468 889 L 481 886 L 491 882 L 506 873 L 511 869 L 620 759 L 627 753 L 733 645 L 741 638 L 802 698 L 802 700 L 688 815 L 572 935 L 552 951 L 530 964 L 508 973 L 488 978 L 470 980 L 399 980 L 387 979 L 371 976 L 345 967 L 326 957 L 309 945 L 284 921 L 276 911 L 265 894 L 257 878 Z
M 364 211 L 380 207 L 395 205 L 477 205 L 493 207 L 509 211 L 525 217 L 541 225 L 553 233 L 568 245 L 613 289 L 613 291 L 549 355 L 547 355 L 508 315 L 494 305 L 480 299 L 466 296 L 397 296 L 381 300 L 367 307 L 360 312 L 348 324 L 341 334 L 334 350 L 331 365 L 331 429 L 336 450 L 342 462 L 348 471 L 553 673 L 585 708 L 526 767 L 524 768 L 284 528 L 275 517 L 267 505 L 257 485 L 251 468 L 247 452 L 245 438 L 245 353 L 250 328 L 258 306 L 266 290 L 275 276 L 287 261 L 301 247 L 317 234 L 328 227 L 343 219 Z
M 727 625 L 503 851 L 489 862 L 479 867 L 464 871 L 399 871 L 385 867 L 373 860 L 361 848 L 357 842 L 353 834 L 349 818 L 349 749 L 351 737 L 355 726 L 362 715 L 402 674 L 404 674 L 420 691 L 384 727 L 380 732 L 376 740 L 373 752 L 373 816 L 375 824 L 379 832 L 384 838 L 391 843 L 402 847 L 462 847 L 469 845 L 480 839 L 708 609 L 711 608 Z
M 656 494 L 785 621 L 789 626 L 839 675 L 866 700 L 889 723 L 894 730 L 898 738 L 901 747 L 903 760 L 903 816 L 902 824 L 899 834 L 891 848 L 880 859 L 873 864 L 867 867 L 853 871 L 787 871 L 773 867 L 759 859 L 715 816 L 715 814 L 730 799 L 732 799 L 771 838 L 783 845 L 790 847 L 851 847 L 855 846 L 865 841 L 873 833 L 879 819 L 879 759 L 875 746 L 869 737 L 639 512 L 639 510 Z
M 380 321 L 392 316 L 402 314 L 461 314 L 475 317 L 486 322 L 492 326 L 534 368 L 534 370 L 518 385 L 479 346 L 468 340 L 461 338 L 403 338 L 396 340 L 388 344 L 380 352 L 376 359 L 374 365 L 373 371 L 373 421 L 374 428 L 376 434 L 383 446 L 502 562 L 593 652 L 616 676 L 599 692 L 427 523 L 361 457 L 357 451 L 351 436 L 349 424 L 350 363 L 354 350 L 360 339 L 369 329 Z
M 894 340 L 900 351 L 904 367 L 904 430 L 901 444 L 895 457 L 888 467 L 853 502 L 851 502 L 839 491 L 835 486 L 836 484 L 871 449 L 877 438 L 880 425 L 880 373 L 877 360 L 872 351 L 866 345 L 854 339 L 850 338 L 794 338 L 783 341 L 773 347 L 685 436 L 547 579 L 545 579 L 533 568 L 530 564 L 530 562 L 739 347 L 758 328 L 767 322 L 782 316 L 792 314 L 851 314 L 861 316 L 875 322 L 882 327 Z
M 434 704 L 511 782 L 468 825 L 459 829 L 404 829 L 398 826 L 394 822 L 391 814 L 391 754 L 392 749 L 395 742 Z
M 626 525 L 651 549 L 696 595 L 687 605 L 629 662 L 560 594 L 560 592 L 611 539 Z
M 817 712 L 857 752 L 861 761 L 861 816 L 858 822 L 854 826 L 848 829 L 794 829 L 788 827 L 782 823 L 745 786 L 745 784 L 771 757 Z
M 848 356 L 854 359 L 858 363 L 861 369 L 861 427 L 859 433 L 856 438 L 838 457 L 821 473 L 766 420 L 747 400 L 786 360 L 792 357 L 796 356 Z
M 406 356 L 458 356 L 467 360 L 505 399 L 497 408 L 435 469 L 433 469 L 422 459 L 395 432 L 392 426 L 391 422 L 391 371 L 394 364 L 399 359 Z" stroke="#496729" stroke-width="36" stroke-linejoin="round" stroke-linecap="round"/>
</svg>
